<svg width="22" height="22" viewBox="0 0 22 22" fill="none" xmlns="http://www.w3.org/2000/svg">
<path d="M9.85895 11.5158L9.85107 14.6032C10.7973 14.609 13.5364 15.095 13.7952 13.0995C13.8123 11.2849 10.8084 11.5223 9.85895 11.5158Z" fill="white"/>
<path d="M13.2414 8.74301C13.1075 7.00754 10.72 7.31476 9.92966 7.29788L9.92554 10.1002C10.7137 10.1101 13.0551 10.5288 13.2414 8.74301Z" fill="white"/>
<path d="M11.0003 0C4.92528 0 0 4.92471 0 10.9999C0 17.0751 4.92528 22 11.0003 22C17.0753 22 22.0006 17.0751 22.0006 10.9999C22.0006 4.92471 17.0755 0 11.0003 0ZM16.471 13.4389C16.238 15.4614 14.4724 16.3487 12.325 16.295L12.3001 18.6196L10.9007 18.6046L10.9303 16.2748C10.5651 16.2728 10.1913 16.2651 9.8091 16.2517L9.77928 18.5949L8.37972 18.5799L8.4056 16.2523C8.07775 16.247 5.57892 16.2148 5.57892 16.2148L5.87695 14.5425C5.87695 14.5425 6.91302 14.5727 6.89464 14.5543C7.28738 14.5543 7.39692 14.2707 7.4243 14.0952L7.48938 7.78722C7.43931 7.50439 7.26 7.16997 6.68907 7.16565C6.70427 7.1469 5.67044 7.15703 5.67044 7.15703L5.6892 5.65882C5.6892 5.65882 8.21148 5.69051 8.51533 5.68601L8.54065 3.38486L9.9402 3.39968L9.91057 5.67982C10.2876 5.67513 10.6608 5.69595 11.0286 5.70195L11.0616 3.40962L12.461 3.42443L12.4351 5.72559C14.2396 5.90302 15.5699 6.58123 15.8083 8.13871C15.916 9.35502 15.3559 10.1118 14.5455 10.5153C15.5799 10.9104 16.601 12.217 16.471 13.4389Z" fill="white"/>
<path d="M9.9291 7.29788C10.7195 7.31476 13.1069 7.00754 13.2408 8.74301C13.0551 10.5288 10.7137 10.1101 9.92497 10.1002L9.9291 7.29788ZM9.85107 14.6033L9.85895 11.5159C10.8084 11.5224 13.8123 11.285 13.7952 13.0996C13.5364 15.095 10.7973 14.6087 9.85107 14.6033Z" fill="white"/>
</svg>
