<svg width="15" height="15" viewBox="0 0 15 15" fill="none" xmlns="http://www.w3.org/2000/svg">
<g clip-path="url(#clip0_7_1118)">
<path fill-rule="evenodd" clip-rule="evenodd" d="M10.0556 9.43922H10.7234L15 13.7158L13.7157 15L9.43917 10.7235V10.0428L9.20801 9.81165C8.11385 10.7497 6.69884 11.2275 5.25998 11.1447C3.82112 11.0619 2.47027 10.4249 1.49096 9.36752C0.51164 8.3101 -0.0200003 6.91445 0.00761628 5.47347C0.0352328 4.03249 0.619959 2.65823 1.63907 1.63912C2.65818 0.620005 4.03245 0.0352786 5.47342 0.00766205C6.9144 -0.0199545 8.31006 0.511686 9.36747 1.491C10.4249 2.47032 11.0618 3.82117 11.1446 5.26003C11.2275 6.69889 10.7497 8.11389 9.8116 9.20805L10.0556 9.43922ZM1.73369 5.58648C1.73369 6.34848 1.95965 7.09336 2.38299 7.72694C2.80634 8.36052 3.40805 8.85434 4.11205 9.14594C4.81605 9.43755 5.5907 9.51385 6.33806 9.36519C7.08542 9.21653 7.77191 8.84959 8.31073 8.31077C8.84954 7.77196 9.21648 7.08547 9.36514 6.33811C9.5138 5.59075 9.4375 4.81609 9.1459 4.1121C8.85429 3.4081 8.36048 2.80638 7.7269 2.38304C7.09332 1.95969 6.34843 1.73374 5.58643 1.73374C4.56462 1.73374 3.58466 2.13965 2.86213 2.86218C2.1396 3.58471 1.73369 4.56467 1.73369 5.58648Z" fill="#8A93A7"/>
</g>
<defs>
<clipPath id="clip0_7_1118">
<rect width="15" height="15" fill="white"/>
</clipPath>
</defs>
</svg>
