<svg width="97" height="22" viewBox="0 0 97 22" fill="none" xmlns="http://www.w3.org/2000/svg">
<path d="M0 3.13235H2.32518V7.22269C2.33802 9.75006 3.03606 11.4093 4.4209 12.2004C4.867 12.3866 5.28261 12.4796 5.66774 12.4796H5.82821C6.64659 12.4796 7.4377 12.1298 8.20314 11.4318C8.71503 10.8605 9.0472 10.1946 9.20125 9.43715C9.3216 9.00549 9.38097 8.20636 9.38097 7.04297V3.13235H11.6949V6.8841C11.6949 8.84021 11.5184 10.2138 11.167 11.0049C10.9536 11.5505 10.6551 12.0865 10.2684 12.6112C9.53663 13.5692 8.48877 14.2416 7.12639 14.6267C6.72041 14.747 6.32887 14.8064 5.94856 14.8064H5.54899C4.43213 14.8064 3.36662 14.4069 2.35567 13.6093C0.78469 12.2309 0 10.0598 0 7.09432V3.13235Z" fill="white"/>
<path d="M12.6897 3.13235H15.0149V4.14972H15.0454C16.0226 3.47094 17.1812 3.13235 18.5179 3.13235C21.1127 3.13235 22.9147 4.29896 23.9257 6.63377C24.2177 7.39921 24.3654 8.14699 24.3654 8.87872V14.8048H22.0402V8.95896C22.0402 8.02182 21.7401 7.19381 21.1416 6.47491C20.5157 5.79613 19.6412 5.45754 18.5179 5.45754C16.9212 5.45754 15.8477 6.14595 15.2957 7.52277C15.1096 8.00898 15.0165 8.51125 15.0165 9.02956V14.8064H12.6913V3.13235H12.6897Z" fill="white"/>
<path d="M26.5383 0C27.0903 0 27.4626 0.306494 27.6552 0.917878L27.6857 1.17784C27.6857 1.71701 27.3968 2.09251 26.8175 2.30593L26.5881 2.32518H26.4886C25.9638 2.32518 25.598 2.03634 25.391 1.45705L25.3605 1.22758V1.14735C25.3605 0.614593 25.6397 0.248726 26.1981 0.0497452L26.5367 0L26.5383 0ZM25.3605 3.13234H27.6857V14.8064H25.3605V3.13234Z" fill="white"/>
<path d="M34.56 3.13233C36.4294 3.13233 38.002 3.94109 39.2793 5.557L39.3387 5.65649C38.1143 6.58079 37.4837 7.04294 37.4436 7.04294C36.7054 5.98545 35.7169 5.45591 34.4797 5.45591C33.2425 5.45591 32.315 6.01755 31.5159 7.14243C31.1773 7.76826 31.0072 8.37964 31.0072 8.97819C31.0072 10.2347 31.6122 11.2568 32.8237 12.0415C33.3885 12.3336 33.9582 12.4812 34.5295 12.4812C35.7073 12.4812 36.6878 11.9533 37.4725 10.8942L39.3387 12.2806C39.2248 12.5197 38.8493 12.9257 38.2106 13.497C37.113 14.3683 35.9031 14.8032 34.5792 14.8032H34.5086C32.6793 14.8032 31.1372 14.0442 29.8791 12.5277C29.0816 11.4301 28.682 10.2395 28.682 8.95572C28.682 7.31253 29.3207 5.87313 30.598 4.63592C31.7486 3.63139 33.0692 3.12912 34.5584 3.12912L34.56 3.13233Z" fill="white"/>
<path d="M45.5041 3.13234C47.0334 3.13234 48.3974 3.70521 49.5945 4.84775C50.7322 6.05126 51.3003 7.42808 51.3003 8.9782C51.3003 10.5283 50.6712 12.0319 49.4148 13.2691C48.2578 14.2929 46.9467 14.8048 45.4833 14.8048H45.4335C43.6973 14.8048 42.2145 14.1164 40.9837 12.7396C40.0659 11.589 39.6069 10.3358 39.6069 8.9782C39.6069 7.80036 39.9568 6.68671 40.6548 5.63565C41.9048 3.96678 43.5208 3.13074 45.5041 3.13074V3.13234ZM41.9626 8.77922V8.92845L41.9321 8.95894L41.9626 8.9782V9.13867C41.9626 10.0838 42.4119 10.9584 43.3089 11.7623C43.9941 12.2405 44.7082 12.4812 45.4544 12.4812C46.605 12.4812 47.5597 11.9886 48.3171 11.0049C48.7633 10.347 48.9863 9.67142 48.9863 8.9798C48.9863 7.76987 48.4247 6.76534 47.2998 5.96621C46.6884 5.62762 46.0562 5.45753 45.4047 5.45753C44.2413 5.45753 43.2704 6.00312 42.4921 7.0943C42.1391 7.69285 41.9626 8.25449 41.9626 8.78082V8.77922Z" fill="white"/>
<path d="M53.4761 0C54.0281 0 54.4003 0.306494 54.5929 0.917878L54.6234 1.17784C54.6234 1.71701 54.3346 2.09251 53.7553 2.30593L53.5258 2.32518H53.4263C52.9016 2.32518 52.5357 2.03634 52.3287 1.45705L52.2982 1.22758V1.14735C52.2982 0.614593 52.5774 0.248726 53.1359 0.0497452L53.4744 0L53.4761 0ZM52.2982 3.13234H54.6234V14.8064H52.2982V3.13234Z" fill="white"/>
<path d="M55.6215 3.13235H57.9466V4.14972H57.9771C58.9544 3.47094 60.113 3.13235 61.4497 3.13235C64.0444 3.13235 65.8465 4.29896 66.8574 6.63377C67.1495 7.39921 67.2971 8.14699 67.2971 8.87872V14.8048H64.9719V8.95896C64.9719 8.02182 64.6719 7.19381 64.0733 6.47491C63.4475 5.79613 62.5729 5.45754 61.4497 5.45754C59.853 5.45754 58.7795 6.14595 58.2275 7.52277C58.0413 8.00898 57.9482 8.51125 57.9482 9.02956V14.8064H55.6231V3.13235H55.6215Z" fill="white"/>
<path d="M74.1685 3.13235C75.8839 3.13235 77.365 3.82076 78.6086 5.19758C79.5265 6.35456 79.9855 7.60942 79.9855 8.95896C79.9726 9.39864 79.9325 9.78697 79.8651 10.1256H70.8468C71.1324 10.9841 71.7053 11.642 72.5622 12.1009C73.0677 12.3545 73.5924 12.4796 74.138 12.4796C75.0559 12.4796 75.8839 12.141 76.622 11.4623L78.2476 13.0878V13.1183C77.0697 14.2416 75.7106 14.8048 74.1669 14.8048H74.1171C72.3809 14.8048 70.8981 14.1164 69.6673 12.7396C68.7495 11.589 68.2905 10.3358 68.2905 8.97821C68.2905 7.24836 68.9789 5.75922 70.3558 4.50917C71.4726 3.59129 72.7435 3.13235 74.1669 3.13235H74.1685ZM70.8468 7.81161H77.4308C77.1708 7.03334 76.6461 6.39467 75.855 5.89562C75.2629 5.60357 74.6836 5.45593 74.1187 5.45593C72.8815 5.45593 71.8674 6.05127 71.0763 7.24195L70.8468 7.81V7.81161Z" fill="white"/>
<path d="M78.2781 3.13235H81.2917L84.6631 7.14246L87.7056 3.46131L88.0057 3.13235H91.0193L86.1699 8.95896L96.9052 21.79H93.8916L84.6326 10.7947L81.3206 14.8048H78.2781V14.7743L83.1066 8.97821V8.95896L78.2781 3.13235Z" fill="white"/>
</svg>
