<svg width="177" height="120" viewBox="0 0 177 120" fill="none" xmlns="http://www.w3.org/2000/svg">
<path d="M58.4528 52.0287L73.4697 60.7007L88.4896 69.3726L103.509 60.7007L118.529 52.0287V34.6848V17.3439V0L103.509 8.67194V26.0129V43.3568L88.4896 52.0287L73.4697 43.3568V26.0129L58.4528 34.6848V52.0287Z" fill="white"/>
<path d="M73.4697 8.67195L58.4528 0V17.3439L73.4697 26.0129L88.4896 17.3439L73.4697 8.67195Z" fill="url(#paint0_linear_332_120)"/>
<path d="M0 85.7347H4.24659V93.2051C4.27003 97.821 5.54489 100.851 8.07408 102.296C8.88882 102.636 9.64787 102.806 10.3512 102.806H10.6443C12.139 102.806 13.5838 102.167 14.9817 100.892C15.9166 99.849 16.5233 98.6328 16.8046 97.2495C17.0244 96.4611 17.1329 95.0016 17.1329 92.8769V85.7347H21.3589V92.5867C21.3589 96.1593 21.0366 98.6679 20.3947 100.113C20.005 101.109 19.4599 102.088 18.7536 103.046C17.4172 104.796 15.5034 106.024 13.0152 106.727C12.2738 106.947 11.5587 107.056 10.8641 107.056H10.1344C8.0946 107.056 6.14861 106.326 4.30227 104.869C1.43604 102.355 0.0029307 98.3895 0.0029307 92.9706V85.7377L0 85.7347Z" fill="white"/>
<path d="M23.176 85.7347H27.4226V87.5928H27.4783C29.2631 86.3531 31.379 85.7347 33.8203 85.7347C38.5592 85.7347 41.8504 87.8654 43.6968 92.1295C44.2302 93.5275 44.4998 94.8932 44.4998 96.2296V107.053H40.2532V96.3761C40.2532 94.6646 39.7052 93.1523 38.612 91.8394C37.469 90.5997 35.8718 89.9813 33.8203 89.9813C30.9043 89.9813 28.9436 91.2386 27.9355 93.7531C27.5955 94.6411 27.4255 95.5585 27.4255 96.5051V107.056H23.1789V85.7377L23.176 85.7347Z" fill="white"/>
<path d="M48.4679 80.014C49.4761 80.014 50.156 80.5738 50.5077 81.6904L50.5634 82.1651C50.5634 83.1499 50.0359 83.8357 48.9779 84.2254L48.5588 84.2606H48.3771C47.4188 84.2606 46.7505 83.7331 46.3725 82.6751L46.3168 82.256V82.1095C46.3168 81.1365 46.8267 80.4683 47.8466 80.1049L48.465 80.014H48.4679ZM46.3168 85.7347H50.5634V107.053H46.3168V85.7347Z" fill="white"/>
<path d="M63.1185 85.7347C66.5328 85.7347 69.4049 87.2118 71.7377 90.163L71.8461 90.3447C69.61 92.0328 68.4583 92.8769 68.385 92.8769C67.0369 90.9455 65.2316 89.9784 62.972 89.9784C60.7124 89.9784 59.0185 91.0041 57.559 93.0586C56.9406 94.2015 56.6299 95.3181 56.6299 96.4113C56.6299 98.706 57.7348 100.573 59.9475 102.006C60.9791 102.539 62.0195 102.809 63.0628 102.809C65.214 102.809 67.0046 101.845 68.4377 99.9105L71.8461 102.443C71.6381 102.879 70.9523 103.621 69.7859 104.664C67.7813 106.256 65.5715 107.05 63.1537 107.05H63.0247C59.6837 107.05 56.8673 105.664 54.5697 102.894C53.1131 100.889 52.3834 98.7148 52.3834 96.3703C52.3834 93.3692 53.5498 90.7404 55.8826 88.4808C57.9839 86.6462 60.3959 85.7289 63.1156 85.7289L63.1185 85.7347Z" fill="white"/>
<path d="M83.1059 85.7347C85.8989 85.7347 88.3899 86.781 90.5763 88.8677C92.6541 91.0657 93.6916 93.5802 93.6916 96.4113C93.6916 99.2423 92.5428 101.988 90.248 104.248C88.135 106.118 85.7406 107.053 83.0678 107.053H82.9769C79.8059 107.053 77.098 105.795 74.8501 103.281C73.1737 101.18 72.3356 98.8907 72.3356 96.4113C72.3356 94.2602 72.9745 92.2263 74.2493 90.3066C76.5323 87.2587 79.4836 85.7318 83.1059 85.7318V85.7347ZM76.6378 96.0479V96.3204L76.5822 96.3761L76.6378 96.4113V96.7044C76.6378 98.4305 77.4584 100.028 79.0967 101.496C80.3481 102.369 81.6523 102.809 83.015 102.809C85.1164 102.809 86.8601 101.909 88.2434 100.113C89.0582 98.9112 89.4655 97.6774 89.4655 96.4142C89.4655 94.2045 88.4398 92.3699 86.3854 90.9104C85.2688 90.292 84.1141 89.9813 82.9242 89.9813C80.7994 89.9813 79.0264 90.9778 77.605 92.9706C76.9602 94.0638 76.6378 95.0895 76.6378 96.0508V96.0479Z" fill="white"/>
<path d="M97.6656 80.014C98.6738 80.014 99.3537 80.5738 99.7054 81.6904L99.7611 82.1651C99.7611 83.1499 99.2336 83.8357 98.1756 84.2254L97.7565 84.2606H97.5748C96.6164 84.2606 95.9482 83.7331 95.5702 82.6751L95.5145 82.256V82.1095C95.5145 81.1365 96.0244 80.4683 97.0443 80.1049L97.6627 80.014H97.6656ZM95.5145 85.7347H99.7611V107.053H95.5145V85.7347Z" fill="white"/>
<path d="M101.584 85.7347H105.831V87.5928H105.886C107.671 86.3531 109.787 85.7347 112.228 85.7347C116.967 85.7347 120.258 87.8654 122.105 92.1295C122.638 93.5275 122.908 94.8932 122.908 96.2296V107.053H118.661V96.3761C118.661 94.6646 118.113 93.1523 117.02 91.8394C115.877 90.5997 114.28 89.9813 112.228 89.9813C109.312 89.9813 107.352 91.2386 106.343 93.7531C106.003 94.6411 105.833 95.5585 105.833 96.5051V107.056H101.587V85.7377L101.584 85.7347Z" fill="white"/>
<path d="M135.457 85.7347C138.59 85.7347 141.295 86.992 143.566 89.5066C145.243 91.6196 146.081 93.9114 146.081 96.3761C146.057 97.1791 145.984 97.8884 145.861 98.5067H129.39C129.912 100.075 130.958 101.276 132.523 102.114C133.447 102.577 134.405 102.806 135.401 102.806C137.078 102.806 138.59 102.188 139.938 100.948L142.907 103.917V103.972C140.756 106.024 138.273 107.053 135.454 107.053H135.363C132.192 107.053 129.484 105.795 127.236 103.281C125.56 101.18 124.722 98.8907 124.722 96.4113C124.722 93.252 125.979 90.5323 128.494 88.2493C130.533 86.5729 132.855 85.7347 135.454 85.7347H135.457ZM129.39 94.2807H141.415C140.94 92.8593 139.982 91.6929 138.537 90.7814C137.456 90.248 136.398 89.9784 135.366 89.9784C133.107 89.9784 131.254 91.0657 129.81 93.2403L129.39 94.2777V94.2807Z" fill="white"/>
<path d="M142.963 85.7347H148.466L154.624 93.0586L160.18 86.3355L160.728 85.7347H166.232L157.376 96.3761L176.982 119.81H171.478L154.568 99.7288L148.519 107.053H142.963V106.997L151.781 96.4113V96.3761L142.963 85.7347Z" fill="white"/>
<defs>
<linearGradient id="paint0_linear_332_120" x1="72.0689" y1="14.5158" x2="114.649" y2="100.35" gradientUnits="userSpaceOnUse">
<stop stop-color="#FBB040"/>
<stop offset="1" stop-color="#F7941D"/>
</linearGradient>
</defs>
</svg>
