<svg width="21" height="22" viewBox="0 0 21 22" fill="none" xmlns="http://www.w3.org/2000/svg">
<path d="M19.8099 11.8081H19.4473V10.1286C19.4448 9.33726 19.1293 8.57903 18.5697 8.01945C18.0101 7.45987 17.2519 7.14439 16.4605 7.14187H13.5024C13.8637 6.37974 14.0263 5.53861 13.9751 4.69675C13.9239 3.85488 13.6606 3.03965 13.2097 2.32689C12.7587 1.61414 12.1349 1.02702 11.396 0.620184C10.6572 0.213345 9.82753 0 8.98411 0C8.14069 0 7.31098 0.213345 6.57217 0.620184C5.83337 1.02702 5.20947 1.61414 4.75855 2.32689C4.30763 3.03965 4.04432 3.85488 3.99314 4.69675C3.94196 5.53861 4.10456 6.37974 4.46581 7.14187H2.98675C2.19539 7.14439 1.43716 7.45987 0.877579 8.01945C0.317999 8.57903 0.00251627 9.33726 0 10.1286L0 18.898C0 19.6902 0.314675 20.4499 0.874799 21.01C1.43492 21.5701 2.19462 21.8848 2.98675 21.8848H16.4605C17.2527 21.8848 18.0124 21.5701 18.5725 21.01C19.1326 20.4499 19.4473 19.6902 19.4473 18.898V17.1804H19.8099C19.8842 17.1817 19.958 17.168 20.0269 17.1402C20.0957 17.1124 20.1583 17.0709 20.2109 17.0184C20.2634 16.9659 20.3048 16.9033 20.3327 16.8344C20.3605 16.7655 20.3742 16.6917 20.3729 16.6174V12.4092C20.3729 12.2599 20.3136 12.1167 20.208 12.0111C20.1024 11.9056 19.9592 11.8462 19.8099 11.8462V11.8081ZM19.2469 12.9722V16.1308H15.6781C15.2804 16.0998 14.9091 15.92 14.6382 15.6273C14.3673 15.3345 14.2169 14.9503 14.2169 14.5515C14.2169 14.1527 14.3673 13.7685 14.6382 13.4757C14.9091 13.183 15.2804 13.0032 15.6781 12.9722H19.2469ZM4.93339 5.04256C4.98396 3.99976 5.43381 3.01639 6.18971 2.29625C6.94562 1.57611 7.94962 1.17442 8.99365 1.17442C10.0377 1.17442 11.0417 1.57611 11.7976 2.29625C12.5535 3.01639 13.0033 3.99976 13.0539 5.04256C13.0397 5.79246 12.8148 6.52324 12.405 7.15142H9.34195V6.86515C9.68511 6.82502 10.013 6.70043 10.2962 6.50254C10.4343 6.40803 10.5473 6.28131 10.6254 6.13334C10.7035 5.98537 10.7445 5.8206 10.7447 5.65327C10.7503 5.51785 10.7249 5.38294 10.6703 5.25888C10.6157 5.13483 10.5334 5.02492 10.4298 4.9376C10.1941 4.75414 9.91442 4.6357 9.61867 4.59407H9.42783L8.66444 4.47002C8.51925 4.44032 8.38037 4.38542 8.25412 4.3078C8.21502 4.27128 8.18473 4.22634 8.16555 4.17639C8.14636 4.12644 8.13878 4.07278 8.14337 4.01947C8.14797 3.96616 8.16462 3.91459 8.19207 3.86866C8.21952 3.82273 8.25706 3.78364 8.30183 3.75435C8.41379 3.69048 8.53683 3.64839 8.66444 3.6303C9.05444 3.56594 9.45429 3.59871 9.82861 3.72572C9.99575 3.78743 10.1584 3.86077 10.3153 3.94519H10.5347V3.12455H10.4393C10.2472 3.05785 10.0491 3.00991 9.84769 2.98142C9.68216 2.93084 9.51312 2.89256 9.34195 2.86691V2.17032H8.67398V2.86691C8.33158 2.9038 8.0037 3.02511 7.71975 3.21997C7.58782 3.31472 7.48015 3.43931 7.40552 3.58359C7.3309 3.72786 7.29143 3.88773 7.29034 4.05016C7.27676 4.18028 7.29008 4.31181 7.32948 4.43657C7.36888 4.56133 7.43351 4.67665 7.51936 4.77538C7.75077 4.98582 8.03994 5.1221 8.34954 5.16661H8.54993L9.34195 5.29066C9.47931 5.31667 9.61147 5.36502 9.73318 5.4338C9.77855 5.46284 9.81445 5.5045 9.83649 5.55365C9.85853 5.60281 9.86573 5.65733 9.85723 5.71052C9.86292 5.76823 9.85257 5.82639 9.82731 5.87858C9.80206 5.93078 9.76288 5.97499 9.7141 6.00634C9.59994 6.07469 9.47352 6.12007 9.34195 6.13993C9.02624 6.1948 8.70342 6.1948 8.38771 6.13993L8.01556 6.04451L7.72929 5.93L7.5289 5.82503H7.23309V6.58842H7.31897C7.53763 6.67519 7.76467 6.73915 7.99648 6.77927C8.2237 6.81883 8.45316 6.84433 8.68353 6.8556V7.11325H5.53455C5.13556 6.46817 4.92409 5.72472 4.92385 4.96622L4.93339 5.04256ZM18.2831 18.8599C18.271 19.3496 18.0711 19.8158 17.7247 20.1622C17.3783 20.5086 16.9121 20.7085 16.4224 20.7206H2.98675C2.50342 20.709 2.04251 20.5144 1.69712 20.1761C1.35173 19.8378 1.14761 19.381 1.126 18.898V10.1286C1.13845 9.63078 1.345 9.15753 1.70157 8.80987C2.05813 8.46222 2.53646 8.26771 3.03446 8.26787H16.4605C16.9502 8.27997 17.4165 8.47989 17.7629 8.82627C18.1093 9.17264 18.3092 9.63893 18.3213 10.1286V11.8081H15.6781C14.9884 11.8491 14.3404 12.1519 13.8665 12.6548C13.3927 13.1576 13.1288 13.8224 13.1288 14.5133C13.1288 15.2042 13.3927 15.8691 13.8665 16.3719C14.3404 16.8747 14.9884 17.1776 15.6781 17.2186H18.3213L18.2831 18.8599Z" fill="#8A93A7"/>
<path d="M14.8478 14.518C14.8478 14.7298 14.9107 14.9368 15.0286 15.1127C15.1464 15.2887 15.3139 15.4256 15.5098 15.5062C15.7056 15.5868 15.921 15.6074 16.1286 15.5654C16.3361 15.5234 16.5265 15.4207 16.6756 15.2702C16.8247 15.1198 16.9257 14.9285 16.9659 14.7206C17.006 14.5126 16.9835 14.2974 16.9011 14.1023C16.8188 13.9072 16.6803 13.741 16.5033 13.6247C16.3263 13.5084 16.1188 13.4473 15.907 13.4492C15.6252 13.4517 15.3558 13.5655 15.1574 13.7656C14.9591 13.9658 14.8478 14.2362 14.8478 14.518ZM15.907 14.0122C16.0074 14.0103 16.1061 14.0384 16.1905 14.0928C16.2749 14.1472 16.3412 14.2255 16.381 14.3177C16.4207 14.41 16.4321 14.5119 16.4137 14.6107C16.3953 14.7094 16.3479 14.8004 16.2775 14.8721C16.2072 14.9438 16.1171 14.9929 16.0187 15.0132C15.9204 15.0335 15.8182 15.024 15.7252 14.9861C15.6323 14.9481 15.5527 14.8833 15.4967 14.7999C15.4407 14.7166 15.4108 14.6184 15.4108 14.518C15.4108 14.3855 15.4627 14.2583 15.5555 14.1637C15.6483 14.0691 15.7745 14.0147 15.907 14.0122Z" fill="#8A93A7"/>
</svg>
