<svg width="18" height="18" viewBox="0 0 18 18" fill="none" xmlns="http://www.w3.org/2000/svg">
<path d="M5.41764 16.3728V2.42399L7.88057 4.88692C8.01121 5.0217 8.19005 5.09908 8.37774 5.10201C8.56543 5.10494 8.74659 5.0332 8.88138 4.90256C9.01617 4.77191 9.09354 4.59307 9.09647 4.40539C9.09941 4.2177 9.02766 4.03654 8.89702 3.90175L5.19872 0.203447C5.06623 0.0763374 4.88973 0.00536346 4.70613 0.00536346C4.52253 0.00536346 4.34603 0.0763374 4.21354 0.203447L0.609065 3.81574C0.478423 3.94638 0.405029 4.12357 0.405029 4.30833C0.405029 4.49309 0.478423 4.67027 0.609065 4.80091C0.739707 4.93155 0.916895 5.00494 1.10165 5.00494C1.28641 5.00494 1.46359 4.93155 1.59424 4.80091L4.05717 2.33798V16.3728C4.05717 16.5573 4.13048 16.7343 4.26098 16.8648C4.39149 16.9953 4.56848 17.0686 4.75304 17.0686C4.9376 17.0686 5.1146 16.9953 5.2451 16.8648C5.3756 16.7343 5.44892 16.5573 5.44892 16.3728" fill="#8A93A7"/>
<path d="M12.9237 0.695885V14.7698L10.4608 12.2677C10.3961 12.2031 10.3193 12.1518 10.2348 12.1167C10.1503 12.0817 10.0597 12.0637 9.96823 12.0637C9.78347 12.0637 9.60628 12.1371 9.47564 12.2677C9.345 12.3984 9.27161 12.5756 9.27161 12.7603C9.27161 12.9451 9.345 13.1223 9.47564 13.2529L13.0801 16.8652C13.2126 16.9923 13.3891 17.0633 13.5727 17.0633C13.7563 17.0633 13.9328 16.9923 14.0653 16.8652L17.7636 13.1591C17.8284 13.0945 17.8798 13.0177 17.9148 12.9332C17.9499 12.8486 17.9679 12.758 17.9679 12.6665C17.9679 12.575 17.9499 12.4844 17.9148 12.3999C17.8798 12.3153 17.8284 12.2386 17.7636 12.1739C17.6321 12.045 17.4552 11.9728 17.271 11.9728C17.0868 11.9728 16.91 12.045 16.7784 12.1739L14.3155 14.6134V0.695885C14.3155 0.511328 14.2422 0.334334 14.1117 0.203833C13.9812 0.0733306 13.8042 1.04904e-05 13.6196 1.04904e-05C13.4351 1.04904e-05 13.2581 0.0733306 13.1276 0.203833C12.9971 0.334334 12.9237 0.511328 12.9237 0.695885Z" fill="#8A93A7"/>
</svg>
