<svg width="20" height="16" viewBox="0 0 20 16" fill="none" xmlns="http://www.w3.org/2000/svg">
<path d="M9.96706 15.6304C7.10445 15.6304 4.24183 15.6304 1.37922 15.6304C0.593506 15.6304 0.0797293 15.2152 0.00915003 14.5458C-0.030188 14.2276 0.0583227 13.9068 0.255253 13.6539C0.452184 13.4009 0.741442 13.2364 1.05954 13.1965C1.14592 13.1854 1.23298 13.1805 1.32006 13.1819C7.09649 13.1819 12.8722 13.1819 18.6473 13.1819C19.0396 13.1819 19.3884 13.2857 19.6603 13.5732C19.8106 13.7282 19.9165 13.9208 19.9668 14.1307C20.0171 14.3406 20.0101 14.5602 19.9465 14.7665C19.8828 14.9728 19.7648 15.1582 19.6049 15.3032C19.445 15.4483 19.249 15.5477 19.0375 15.591C18.8557 15.6237 18.671 15.6369 18.4864 15.6304C15.6452 15.6304 12.8055 15.6304 9.96706 15.6304Z" fill="white"/>
<path d="M9.96706 9.03956C7.10445 9.03956 4.24184 9.03956 1.37922 9.03956C0.593509 9.03956 0.0797323 8.62439 0.00915298 7.95388C-0.0299028 7.63577 0.0587193 7.31513 0.255598 7.06223C0.452477 6.80932 0.741562 6.64475 1.05954 6.60457C1.14599 6.59436 1.23302 6.58985 1.32006 6.59108C7.09649 6.59108 12.8722 6.59108 18.6473 6.59108C19.0396 6.59108 19.3884 6.69487 19.6603 6.98238C19.8103 7.13738 19.9159 7.32984 19.9661 7.53964C20.0163 7.74943 20.0092 7.96886 19.9456 8.17497C19.8819 8.38108 19.7641 8.56631 19.6043 8.71128C19.4446 8.85626 19.2488 8.95565 19.0375 8.99908C18.8547 9.03465 18.6685 9.04997 18.4823 9.04475C15.6439 9.04267 12.8055 9.04094 9.96706 9.03956Z" fill="white"/>
<path d="M9.96706 2.44871C7.10445 2.44871 4.24183 2.44871 1.37922 2.44871C0.593506 2.44871 0.0797293 2.03354 0.00915003 1.36408C-0.030188 1.04591 0.0583227 0.725134 0.255253 0.47216C0.452184 0.219186 0.741442 0.0546856 1.05954 0.0147662C1.14592 0.00369054 1.23298 -0.00116558 1.32006 0.000235277C7.09649 0.000235277 12.8722 0.000235277 18.6473 0.000235277C19.0396 0.000235277 19.3884 0.104027 19.6603 0.391534C19.8106 0.546512 19.9165 0.739052 19.9668 0.94899C20.0171 1.15893 20.0101 1.37854 19.9465 1.58483C19.8828 1.79111 19.7648 1.97649 19.6049 2.12153C19.445 2.26658 19.249 2.36596 19.0375 2.40927C18.8557 2.44195 18.671 2.45517 18.4864 2.44871C15.6452 2.45217 12.8055 2.45217 9.96706 2.44871Z" fill="white"/>
</svg>
