<svg width="20" height="19" viewBox="0 0 20 19" fill="none" xmlns="http://www.w3.org/2000/svg">
<path d="M14.5871 4.80252H3.87866L12.283 3.03056L13.1157 2.85372L13.2941 2.8162C13.4997 2.772 13.7144 2.80988 13.8924 2.92174C14.0704 3.0336 14.1976 3.2106 14.247 3.41497L14.5871 4.80252Z" fill="#2075BC"/>
<path d="M11.8584 2.29488L2.41174 4.28679L9.66686 0.107766C9.85278 0.000814189 10.0736 -0.0279384 10.2807 0.0278266C10.4878 0.0835917 10.6643 0.219311 10.7714 0.405157L11.8584 2.29488Z" fill="#2075BC"/>
<path d="M14.1069 15.1178C13.678 15.1174 13.2667 14.9468 12.9634 14.6434C12.6601 14.3401 12.4895 13.9289 12.489 13.4999V11.0725C12.4895 10.6435 12.6601 10.2322 12.9634 9.92893C13.2667 9.62561 13.678 9.45502 14.1069 9.45459H17.7985V6.42082C17.7983 6.20636 17.7131 6.00073 17.5615 5.84905C17.4099 5.69736 17.2043 5.612 16.9898 5.61168H1.21377C1.05788 5.61157 0.905327 5.65678 0.774673 5.74181C0.704563 5.78736 0.641831 5.84336 0.588654 5.90787C0.46961 6.05227 0.404671 6.23368 0.405031 6.42082V18.1516C0.405242 18.3661 0.490558 18.5718 0.642255 18.7235C0.793953 18.8752 0.999638 18.9605 1.21417 18.9607H16.9898C17.2043 18.9604 17.4099 18.875 17.5615 18.7233C17.7131 18.5716 17.7983 18.366 17.7985 18.1516V15.1178H14.1069Z" fill="#2075BC"/>
<path d="M18.5565 10.2637H14.1069C13.8923 10.2637 13.6866 10.3489 13.5349 10.5006C13.3831 10.6522 13.2978 10.8579 13.2977 11.0725V13.4999C13.2976 13.6062 13.3184 13.7116 13.359 13.8099C13.3996 13.9082 13.4591 13.9975 13.5343 14.0728C13.6094 14.1481 13.6987 14.2078 13.797 14.2485C13.8952 14.2892 14.0005 14.3102 14.1069 14.3102H18.5565C18.7711 14.3102 18.9768 14.225 19.1285 14.0734C19.2803 13.9217 19.3656 13.716 19.3657 13.5015V11.0725C19.3656 10.8579 19.2803 10.6522 19.1285 10.5006C18.9768 10.3489 18.7711 10.2637 18.5565 10.2637ZM15.1471 13.1965C14.9671 13.1964 14.7912 13.143 14.6416 13.0429C14.492 12.9429 14.3754 12.8007 14.3066 12.6344C14.2377 12.4681 14.2198 12.2851 14.2549 12.1086C14.2901 11.932 14.3768 11.7699 14.5041 11.6427C14.6314 11.5154 14.7936 11.4288 14.9701 11.3937C15.1467 11.3586 15.3296 11.3766 15.4959 11.4455C15.6622 11.5144 15.8043 11.6311 15.9043 11.7808C16.0043 11.9304 16.0577 12.1064 16.0577 12.2864C16.0577 12.4059 16.0341 12.5243 15.9884 12.6347C15.9426 12.7452 15.8755 12.8455 15.791 12.9301C15.7064 13.0146 15.606 13.0816 15.4956 13.1273C15.3851 13.173 15.2667 13.1965 15.1471 13.1965Z" fill="#2075BC"/>
</svg>
