<svg width="19" height="20" viewBox="0 0 19 20" fill="none" xmlns="http://www.w3.org/2000/svg">
<path d="M1.17003 17.3113V18.2911H0.405029V19.7094H18.6447V18.2911H17.9312V17.3113H1.17003Z" fill="#8A93A7"/>
<path d="M9.52485 0L0.405029 4.24617V5.66443H1.17003V6.64432H17.9312V5.66443H18.6705V4.24617L9.52485 0Z" fill="#8A93A7"/>
<path d="M1.89209 15.3V16.9331H5.92338V15.3H5.21854V8.16572H5.92338V7.23741H1.89209V8.16572H2.59692V15.3H1.89209Z" fill="#8A93A7"/>
<path d="M7.50488 15.3V16.9331H11.5791V15.3H10.8743V8.16572H11.5791V7.23741H7.50488V8.16572H8.21831V15.3H7.50488Z" fill="#8A93A7"/>
<path d="M13.1693 15.3V16.9331H17.2006V15.3H16.4872V8.16572H17.2006V7.23741H13.1693V8.16572H13.8741V15.3H13.1693Z" fill="#8A93A7"/>
</svg>
