<svg width="21" height="20" viewBox="0 0 21 20" fill="none" xmlns="http://www.w3.org/2000/svg">
<path d="M14.4765 8.15319C16.7245 8.15319 18.5469 6.32804 18.5469 4.0766C18.5469 1.82515 16.7245 0 14.4765 0C12.2284 0 10.406 1.82515 10.406 4.0766C10.406 6.32804 12.2284 8.15319 14.4765 8.15319Z" fill="#8A93A7"/>
<path d="M11.1252 9.3559C10.9473 10.0165 10.6305 10.6315 10.1959 11.1594C9.76127 11.6874 9.21899 12.1161 8.60538 12.417C8.57056 12.5665 8.54471 12.7179 8.52795 12.8704C8.73761 12.9225 8.94447 12.9828 9.14854 13.0514L9.17448 13.0603C10.263 12.4571 12.495 11.0761 14.4765 11.0761C16.1687 11.0761 18.0435 12.0832 19.2329 12.753C19.5331 12.4568 19.8028 12.1311 20.0381 11.781L20.1006 11.6877C19.275 9.85166 17.0688 8.53782 14.4765 8.53782C13.2343 8.53782 12.0807 8.83958 11.1252 9.3559Z" fill="#8A93A7"/>
<path d="M6.50575 12.555C7.08829 12.5556 7.66522 12.4411 8.20353 12.2181C8.74183 11.995 9.23094 11.6679 9.64286 11.2554C10.0548 10.8428 10.3814 10.353 10.6041 9.81386C10.8268 9.27474 10.9411 8.69694 10.9406 8.11352C10.9406 5.66079 8.95505 3.672 6.50575 3.672C4.05644 3.672 2.07092 5.66058 2.07092 8.11352C2.07092 10.5665 4.05623 12.555 6.50575 12.555Z" fill="#8A93A7"/>
<path d="M8.73478 13.2858C8.65906 13.2639 8.58275 13.243 8.50583 13.2233C7.8522 13.0567 7.18027 12.973 6.50581 12.9741C2.91282 12.9741 0 15.291 0 18.1489C0 18.1856 0.0208134 18.2025 0.0600118 18.2025C0.53504 18.2025 3.74396 15.7396 6.50581 15.7396C8.22457 15.7396 10.1164 16.6935 11.4147 17.4141L11.499 17.4112C11.9742 17.3952 12.4477 17.3448 12.9157 17.2605C12.5154 15.4194 10.8918 13.9115 8.73478 13.2858Z" fill="#8A93A7"/>
<path d="M20.2533 12.0808C20.0418 12.3831 19.8057 12.6673 19.5474 12.9306C18.1529 14.3534 16.1028 15.1966 13.7089 15.2739C14.542 15.6988 15.3578 16.0712 16.1503 16.3937C15.2946 16.9223 14.3419 17.3077 13.3162 17.5332C13.2598 17.5456 13.2032 17.5575 13.1464 17.5689C13.0895 17.5804 13.0326 17.5913 12.9755 17.6016C12.6457 17.6616 12.3132 17.7049 11.9791 17.7315C11.8742 17.7399 11.7686 17.7468 11.6624 17.7519C11.6121 17.7544 11.5616 17.7566 11.511 17.7584L11.6191 17.9269L12.3093 19.0025C14.0481 18.8922 15.627 18.3633 16.9558 17.4855C16.9898 18.2922 17.0074 19.0924 17.0086 19.8861C18.5374 18.1831 19.6166 15.9214 20.1292 13.2455C20.1937 12.9091 20.2492 12.5663 20.2957 12.2171C20.3064 12.1368 20.3166 12.0562 20.3263 11.9752C20.3025 12.0105 20.2782 12.0457 20.2533 12.0808Z" fill="#8A93A7"/>
</svg>
