<svg width="17" height="22" viewBox="0 0 17 22" fill="none" xmlns="http://www.w3.org/2000/svg">
<path d="M8.49388 1C10.4825 0.999997 12.3899 1.78914 13.7972 3.19416C15.2045 4.59919 15.9968 6.50525 16 8.49388V8.49388V17.0653H1V8.49388C1 6.50638 1.78953 4.60028 3.19491 3.19491C4.60028 1.78953 6.50638 1 8.49388 1V1Z" stroke="white" stroke-width="1.5" stroke-linecap="round" stroke-linejoin="round"/>
<path d="M5.28566 17.0653C5.25857 17.5041 5.3216 17.9438 5.47088 18.3573C5.62016 18.7708 5.85252 19.1494 6.15365 19.4697C6.45478 19.79 6.81831 20.0452 7.22183 20.2197C7.62535 20.3942 8.06032 20.4842 8.49995 20.4842C8.93958 20.4842 9.37455 20.3942 9.77807 20.2197C10.1816 20.0452 10.5451 19.79 10.8462 19.4697C11.1474 19.1494 11.3797 18.7708 11.529 18.3573C11.6783 17.9438 11.7413 17.5041 11.7142 17.0653H5.28566Z" stroke="white" stroke-width="1.5" stroke-linecap="round" stroke-linejoin="round"/>
</svg>
