<svg width="14" height="14" viewBox="0 0 14 14" fill="none" xmlns="http://www.w3.org/2000/svg">
<path d="M11.1424 13.9999H2.85764C2.48229 14.0002 2.11057 13.9264 1.76374 13.7826C1.41691 13.6389 1.10177 13.4281 0.836356 13.1623C0.570943 12.8964 0.360462 12.5808 0.216952 12.2334C0.0734416 11.8861 -0.000281136 11.5138 8.05634e-07 11.1378V5.12188V5.11671L0.021748 3.90199V2.86205C0.0214509 2.4861 0.095167 2.11378 0.238679 1.76639C0.382191 1.419 0.592682 1.10336 0.85811 0.837529C1.12354 0.571697 1.43869 0.360889 1.78555 0.217166C2.1324 0.0734438 2.50414 -0.000372709 2.87951 -6.00461e-05H11.1424C11.5177 -0.000352535 11.8895 0.0734789 12.2363 0.21721C12.5831 0.360942 12.8983 0.571753 13.1637 0.837583C13.4291 1.10341 13.6396 1.41905 13.7831 1.76643C13.9266 2.11381 14.0003 2.48611 14 2.86205V11.1378C14.0003 11.5138 13.9266 11.8861 13.7831 12.2334C13.6396 12.5808 13.4291 12.8965 13.1637 13.1623C12.8983 13.4281 12.5831 13.6389 12.2363 13.7827C11.8895 13.9264 11.5177 14.0002 11.1424 13.9999ZM8.85905 12.8495H11.1424C11.5991 12.8495 12.0283 12.6715 12.351 12.3482C12.6738 12.0249 12.8514 11.5951 12.8514 11.1378V2.86205C12.8514 2.40465 12.6736 1.97474 12.3508 1.65151C12.028 1.32828 11.5989 1.15035 11.1424 1.15035H2.87951C2.42282 1.15035 1.99358 1.3284 1.67085 1.65166C1.34813 1.97493 1.17048 2.40476 1.17048 2.86205V3.91238V3.91756L1.14869 5.13228V11.1378C1.14869 11.5952 1.32646 12.0251 1.64922 12.3484C1.97198 12.6716 2.40114 12.8495 2.85772 12.8495H8.85905Z" fill="#2075BC"/>
<path d="M6.99973 10.2974C6.84741 10.2974 6.70133 10.2368 6.59363 10.1289C6.48592 10.021 6.42542 9.87474 6.42542 9.72218V4.27781C6.42542 4.12526 6.48592 3.97895 6.59363 3.87108C6.70133 3.76321 6.84741 3.70261 6.99973 3.70261C7.15204 3.70261 7.29812 3.76321 7.40583 3.87108C7.51353 3.97895 7.57404 4.12526 7.57404 4.27781V9.72218C7.57404 9.87474 7.51353 10.021 7.40583 10.1289C7.29812 10.2368 7.15204 10.2974 6.99973 10.2974Z" fill="#2075BC"/>
<path d="M9.71794 7.44425H4.28207C4.12976 7.44425 3.98368 7.38365 3.87597 7.27578C3.76827 7.16791 3.70776 7.0216 3.70776 6.86905C3.70776 6.71649 3.76827 6.57019 3.87597 6.46231C3.98368 6.35444 4.12976 6.29384 4.28207 6.29384H9.71794C9.87026 6.29384 10.0163 6.35444 10.124 6.46231C10.2317 6.57019 10.2923 6.71649 10.2923 6.86905C10.2923 7.0216 10.2317 7.16791 10.124 7.27578C10.0163 7.38365 9.87026 7.44425 9.71794 7.44425Z" fill="#2075BC"/>
</svg>
