<svg width="48" height="48" viewBox="0 0 48 48" fill="none" xmlns="http://www.w3.org/2000/svg">
<path d="M43.3392 4.6562H36.608V11.3624H43.3392V4.6562Z" fill="white"/>
<path d="M11.3199 4.6562H4.58875V11.3624H11.3199V4.6562Z" fill="white"/>
<path d="M11.3199 36.6328H4.58875V43.339H11.3199V36.6328Z" fill="white"/>
<path d="M0 47.9267H15.92V32.0659H0V47.9267ZM2.1536 34.2179H13.7664V45.7875H2.1536V34.2179Z" fill="white"/>
<path d="M15.92 0.078125H0V15.9389H15.92V0.078125ZM13.7664 13.7869H2.1536V2.22371H13.7664V13.7869Z" fill="white"/>
<path d="M32.08 0.078125V15.9389H48V0.078125H32.08ZM45.84 13.7869H34.2336V2.22371H45.8496L45.84 13.7869Z" fill="white"/>
<path d="M29.656 0H27.368V2.27949H29.656V0Z" fill="white"/>
<path d="M34.3008 31.9336H32.0128V34.2131H34.3008V31.9336Z" fill="white"/>
<path d="M13.7664 20.5361H18.2816V22.704H20.512V27.4049H25.1328V25.1238H27.4288V22.8507H29.656V20.5712H27.4288V18.2598H29.6496V20.5361H32.0128V22.8092H29.7248V25.0887H34.3008V20.5361H36.608V25.0887H38.8288V25.1126H41.1168V22.8332H38.896V20.5361H41.1168V18.2598H29.656V13.7758H27.4288V11.4963H29.656V4.65622H20.5696V2.27949H25.0304V0H18.2992V0.291711H18.2816V18.2598H13.7664V20.5361H11.4768V25.0999H18.2096V22.8204H13.7664V20.5361ZM20.5696 13.7758H22.8V11.4963H20.5696V6.93571H22.8448V9.21838H25.1328V6.93889H27.3728V11.4995H25.1392V13.779H27.368V16.0218H25.128V13.6961H22.84V18.1817H25.1344V22.9272H22.8V18.3045H20.5696V13.7758Z" fill="white"/>
<path d="M25.0993 45.6392H18.2321V47.9553H25.0993V45.6392Z" fill="white"/>
<path d="M11.32 29.7099V27.4384V27.4288V25.1573H9.10404H9.03044H6.81604V27.4384H9.03044V29.7099H11.32Z" fill="white"/>
<path d="M6.7008 27.4288H2.288V25.1652H6.7008V22.9208H9.0304V20.5409H11.32V18.2614H9.0304V20.4373H2.288V18.2614H0V20.5409H2.1952V22.8858H0V25.0935V25.1652V27.4288V27.9756V29.7099H6.7008V27.4288Z" fill="white"/>
<path d="M15.92 27.4289H13.6304V29.7099H15.92H18.208V27.4289H15.92Z" fill="white"/>
<path d="M29.7264 38.8454H32.0144H34.3024V36.5659H32.0144H29.7264V38.8454Z" fill="white"/>
<path d="M22.8096 34.2131H25.0304V31.932H22.8592V29.7864H20.5696H18.2816V31.932V32.0675V34.2131H20.5216V36.4926H22.8096V34.2131Z" fill="white"/>
<path d="M48 18.2614H45.712V20.5409H48V18.2614Z" fill="white"/>
<path d="M45.6273 20.5409H43.3376V29.7098H44.9169H45.6273H48V25.1253H45.6273V20.5409Z" fill="white"/>
<path d="M48 45.5993H45.7632V48H48V45.5993Z" fill="white"/>
<path d="M20.5696 36.5659H18.2816V38.8454H20.5696V36.5659Z" fill="white"/>
<path d="M45.6944 31.94H43.4064V31.932H41.1168V29.7864H38.896V27.5133H36.608H36.5904V25.2338H34.3008V27.5133H32.0144H32.0112H27.4352V29.7944V31.9703V32.0675V34.2928H27.4288H26.12H25.1392V38.8566H25.1328H23.4944H22.8448V41.1376H20.5696V43.4171H22.8592H25.1472H27.4288V43.398V43.1589V41.1376H27.4352H29.7248V38.8566H27.4352H27.4288V36.4543H27.4352H29.6496V34.2928V32.0675H29.7248H32.0128V29.7944H32.0144H36.608V36.4926V36.6201V43.398H34.3184V41.1185H32.0288V43.398H29.7392V45.5994H27.4352V47.9554H34.3024V45.5994H36.608H38.88V48H41.1168V45.5994H38.896V43.3263H41.1168V41.0468H38.896V38.8454H41.1168V36.5659H38.896V36.4926V32.0675H41.1168V34.2131H43.4064V38.8454H41.1648V41.0468H43.4064H45.6944H48V38.8454H45.6944V31.94Z" fill="white"/>
</svg>
