<svg width="107" height="107" viewBox="0 0 107 107" fill="none" xmlns="http://www.w3.org/2000/svg">
<path d="M96.6105 10.3794H81.6055V25.3286H96.6105V10.3794Z" fill="black"/>
<path d="M25.2341 10.3794H10.2291V25.3286H25.2341V10.3794Z" fill="black"/>
<path d="M25.2341 81.6606H10.2291V96.6098H25.2341V81.6606Z" fill="black"/>
<path d="M0 106.837H35.4883V71.4803H0V106.837ZM4.80073 76.2774H30.6876V102.068H4.80073V76.2774Z" fill="black"/>
<path d="M35.4883 0.174133H0V35.5305H35.4883V0.174133ZM30.6876 30.7334H4.80073V4.95701H30.6876V30.7334Z" fill="black"/>
<path d="M71.5116 0.174133V35.5305H107V0.174133H71.5116ZM102.185 30.7334H76.3123V4.95701H102.206L102.185 30.7334Z" fill="black"/>
<path d="M66.1082 0H61.0079V5.08136H66.1082V0Z" fill="black"/>
<path d="M76.4623 71.1853H71.3619V76.2667H76.4623V71.1853Z" fill="black"/>
<path d="M30.6876 45.7785H40.7528V50.6111H45.7247V61.0901H56.0252V56.0051H61.1434V50.938H66.1082V45.8566H61.1434V40.7042H66.0939V45.7785H71.3619V50.8456H66.2616V55.927H76.4622V45.7785H81.6054V55.927H86.5559V55.9803H91.6562V50.8989H86.7057V45.7785H91.6562V40.7042H66.1082V30.7085H61.1434V25.6271H66.1082V10.3795H45.8531V5.08136H55.797V0H40.792V0.650273H40.7528V40.7042H30.6876V45.7785H25.5837V55.9518H40.5923V50.8705H30.6876V45.7785ZM45.8531 30.7085H50.825V25.6271H45.8531V15.4608H50.9249V20.5493H56.0252V15.468H61.0186V25.6342H56.0395V30.7156H61.0079V35.7152H56.0145V30.5308H50.9142V40.5301H56.0288V51.1086H50.825V40.8037H45.8531V30.7085Z" fill="black"/>
<path d="M55.9505 101.737H40.6423V106.9H55.9505V101.737Z" fill="black"/>
<path d="M25.2343 66.2283V61.1647V61.1434V56.0798H20.2944H20.1304H15.1941V61.1647H20.1304V66.2283H25.2343Z" fill="black"/>
<path d="M14.9372 61.1434H5.10033V56.0975H14.9372V51.0944H20.1303V45.7891H25.2342V40.7078H20.1303V45.5582H5.10033V40.7078H0V45.7891H4.89347V51.0162H0V55.9376V56.0975V61.1434V62.3622V66.2283H14.9372V61.1434Z" fill="black"/>
<path d="M35.4883 61.1436H30.3844V66.2285H35.4883H40.5886V61.1436H35.4883Z" fill="black"/>
<path d="M66.2651 86.5929H71.3655H76.4658V81.5115H71.3655H66.2651V86.5929Z" fill="black"/>
<path d="M50.8465 76.2666H55.797V71.1817H50.957V66.3988H45.8531H40.7528V71.1817V71.4837V76.2666H45.7461V81.348H50.8465V76.2666Z" fill="black"/>
<path d="M107 40.7078H101.9V45.7891H107V40.7078Z" fill="black"/>
<path d="M101.711 45.7889H96.6068V66.2281H100.127H101.711H107V56.0085H101.711V45.7889Z" fill="black"/>
<path d="M107 101.649H102.014V107H107V101.649Z" fill="black"/>
<path d="M45.8531 81.5115H40.7528V86.5929H45.8531V81.5115Z" fill="black"/>
<path d="M101.86 71.1996H96.7601V71.1818H91.6562V66.3989H86.7056V61.3318H81.6053H81.5661V56.2504H76.4622V61.3318H71.3654H71.3583H61.1576V66.4167V71.2671V71.4839V76.4444H61.1433H58.2258H56.0394V86.6178H56.0252H52.3729H50.9248V91.7027H45.853V96.7841H50.9569H56.0573H61.1433V96.7415V96.2084V91.7027H61.1576H66.2615V86.6178H61.1576H61.1433V81.2628H61.1576H66.0939V76.4444V71.4839H66.2615H71.3618V66.4167H71.3654H81.6053V81.3481V81.6324V96.7415H76.5014V91.6601H71.3975V96.7415H66.2936V101.649H61.1576V106.901H76.4657V101.649H81.6053H86.67V107H91.6562V101.649H86.7056V96.5815H91.6562V91.5002H86.7056V86.5929H91.6562V81.5116H86.7056V81.3481V71.4839H91.6562V76.2667H96.7601V86.5929H91.7632V91.5002H96.7601H101.86H107V86.5929H101.86V71.1996Z" fill="black"/>
</svg>
