<svg width="15" height="16" viewBox="0 0 15 16" fill="none" xmlns="http://www.w3.org/2000/svg">
<path d="M0.337245 14.3318C0.545694 14.8266 0.895157 15.2488 1.34189 15.5455C1.78862 15.8422 2.31277 16.0003 2.84873 16L7.84063 16C8.00401 16 8.1607 15.935 8.27623 15.8192C8.39176 15.7034 8.45667 15.5464 8.45667 15.3827C8.45668 15.3016 8.44075 15.2213 8.4098 15.1464C8.37884 15.0715 8.33347 15.0034 8.27626 14.9461C8.21906 14.8887 8.15114 14.8432 8.0764 14.8122C8.00165 14.7812 7.92153 14.7652 7.84063 14.7652L2.84873 14.7652C2.45254 14.7652 2.07259 14.6075 1.79245 14.3268C1.51231 14.046 1.35492 13.6653 1.35492 13.2682L1.35492 2.73177C1.35492 2.33475 1.51231 1.95398 1.79245 1.67324C2.07259 1.3925 2.45255 1.23478 2.84873 1.23478L7.84063 1.23479C7.92154 1.23479 8.00165 1.21881 8.0764 1.18779C8.15114 1.15675 8.21906 1.11127 8.27626 1.05394C8.33347 0.996602 8.37884 0.928535 8.4098 0.853624C8.44075 0.778714 8.45668 0.698428 8.45667 0.61735C8.45667 0.453618 8.39176 0.296592 8.27623 0.180817C8.1607 0.0650406 8.00401 -1.94692e-06 7.84063 -1.9612e-06L2.84873 -2.39761e-06C2.49068 -0.000231311 2.13611 0.0702719 1.80528 0.207475C1.47444 0.344678 1.17385 0.545891 0.920671 0.799605C0.667497 1.05332 0.466712 1.35456 0.3298 1.6861C0.192889 2.01763 0.122536 2.37297 0.122765 2.73177L0.122764 13.2682C0.122148 13.6336 0.195096 13.9953 0.337245 14.3318Z" fill="#8A93A7"/>
<path d="M12.6414 7.38257L4.34258 7.38257C4.26167 7.38255 4.18155 7.39851 4.1068 7.42953C4.03205 7.46055 3.96413 7.50603 3.90692 7.56335C3.8497 7.62068 3.80432 7.68874 3.77335 7.76365C3.74239 7.83855 3.72645 7.91884 3.72645 7.99992C3.72645 8.081 3.74239 8.16128 3.77335 8.23619C3.80432 8.31109 3.8497 8.37915 3.90692 8.43648C3.96413 8.49381 4.03205 8.53928 4.1068 8.5703C4.18155 8.60132 4.26167 8.61728 4.34258 8.61727L12.6414 8.61727L11.0605 10.2016C11.0033 10.259 10.9579 10.327 10.9269 10.4019C10.896 10.4768 10.8801 10.5571 10.8801 10.6382C10.8801 10.7192 10.896 10.7995 10.9269 10.8744C10.9579 10.9493 11.0033 11.0174 11.0605 11.0747C11.1177 11.1321 11.1856 11.1775 11.2604 11.2086C11.3351 11.2396 11.4152 11.2556 11.4961 11.2556C11.577 11.2556 11.6571 11.2396 11.7319 11.2086C11.8066 11.1775 11.8745 11.1321 11.9317 11.0747L15 7.99992L11.9317 4.92511C11.8745 4.86778 11.8066 4.82231 11.7319 4.79128C11.6571 4.76025 11.577 4.74428 11.4961 4.74428C11.4152 4.74428 11.3351 4.76025 11.2604 4.79128C11.1856 4.82231 11.1177 4.86778 11.0605 4.92511C11.0033 4.98244 10.9579 5.0505 10.927 5.1254C10.896 5.20031 10.8801 5.28059 10.8801 5.36166C10.8801 5.44274 10.896 5.52302 10.9269 5.59792C10.9579 5.67283 11.0033 5.74088 11.0605 5.79821L12.6414 7.38257Z" fill="#8A93A7"/>
</svg>
