<svg width="34" height="34" viewBox="0 0 34 34" fill="none" xmlns="http://www.w3.org/2000/svg">
<circle cx="17" cy="17" r="16.5" fill="#F3F3F4" stroke="#2075BC"/>
<path d="M11.5263 21.9086V22.5826H11V23.5583H23.5472V22.5826H23.0564V21.9086H11.5263Z" fill="#8A93A7"/>
<path d="M17.2736 10L11 12.921V13.8966H11.5263V14.5707H23.0564V13.8966H23.565V12.921L17.2736 10Z" fill="#8A93A7"/>
<path d="M12.0229 20.525V21.6485H14.7961V20.525H14.3113V15.6173H14.7961V14.9787H12.0229V15.6173H12.5078V20.525H12.0229Z" fill="#8A93A7"/>
<path d="M15.884 20.525V21.6485H18.6868V20.525H18.2019V15.6173H18.6868V14.9787H15.884V15.6173H16.3748V20.525H15.884Z" fill="#8A93A7"/>
<path d="M19.7806 20.525V21.6485H22.5538V20.525H22.063V15.6173H22.5538V14.9787H19.7806V15.6173H20.2655V20.525H19.7806Z" fill="#8A93A7"/>
</svg>
