<svg width="34" height="34" viewBox="0 0 34 34" fill="none" xmlns="http://www.w3.org/2000/svg">
<circle cx="17" cy="17" r="16.5" fill="#F3F3F4" stroke="#2075BC"/>
<path d="M23.2752 17.3169H23.0505V16.2762C23.049 15.7859 22.8535 15.316 22.5067 14.9693C22.16 14.6225 21.6902 14.427 21.1998 14.4255H19.3668C19.5906 13.9532 19.6914 13.432 19.6597 12.9103C19.628 12.3887 19.4648 11.8835 19.1854 11.4419C18.906 11.0002 18.5194 10.6364 18.0616 10.3843C17.6038 10.1322 17.0896 10 16.567 10C16.0444 10 15.5303 10.1322 15.0725 10.3843C14.6147 10.6364 14.2281 11.0002 13.9486 11.4419C13.6692 11.8835 13.5061 12.3887 13.4744 12.9103C13.4426 13.432 13.5434 13.9532 13.7672 14.4255H12.8507C12.3604 14.427 11.8905 14.6225 11.5438 14.9693C11.197 15.316 11.0016 15.7859 11 16.2762V21.7102C11 22.201 11.195 22.6718 11.5421 23.0189C11.8892 23.366 12.3599 23.5609 12.8507 23.5609H21.1998C21.6906 23.5609 22.1614 23.366 22.5085 23.0189C22.8555 22.6718 23.0505 22.201 23.0505 21.7102V20.6459H23.2752C23.3213 20.6467 23.367 20.6382 23.4097 20.6209C23.4524 20.6037 23.4911 20.578 23.5237 20.5455C23.5563 20.5129 23.5819 20.4741 23.5992 20.4315C23.6164 20.3888 23.6249 20.343 23.6241 20.297V17.6894C23.6241 17.5969 23.5873 17.5081 23.5219 17.4427C23.4565 17.3773 23.3678 17.3405 23.2752 17.3405V17.3169ZM22.9264 18.0383V19.9954H20.7149C20.4685 19.9763 20.2384 19.8649 20.0706 19.6835C19.9027 19.502 19.8095 19.264 19.8095 19.0169C19.8095 18.7697 19.9027 18.5317 20.0706 18.3503C20.2384 18.1689 20.4685 18.0574 20.7149 18.0383H22.9264ZM14.057 13.1246C14.0883 12.4785 14.3671 11.8691 14.8355 11.4229C15.3039 10.9766 15.926 10.7277 16.5729 10.7277C17.2199 10.7277 17.842 10.9766 18.3104 11.4229C18.7788 11.8691 19.0575 12.4785 19.0889 13.1246C19.0801 13.5893 18.9407 14.0421 18.6868 14.4314H16.7888V14.254C17.0014 14.2291 17.2046 14.1519 17.38 14.0293C17.4656 13.9707 17.5356 13.8922 17.584 13.8005C17.6325 13.7088 17.6578 13.6067 17.658 13.5031C17.6615 13.4191 17.6457 13.3355 17.6119 13.2587C17.578 13.1818 17.5271 13.1137 17.4628 13.0596C17.3168 12.9459 17.1435 12.8725 16.9602 12.8467H16.842L16.3689 12.7699C16.279 12.7515 16.1929 12.7174 16.1147 12.6693C16.0904 12.6467 16.0717 12.6189 16.0598 12.5879C16.0479 12.557 16.0432 12.5237 16.0461 12.4907C16.0489 12.4576 16.0592 12.4257 16.0762 12.3972C16.0932 12.3688 16.1165 12.3445 16.1442 12.3264C16.2136 12.2868 16.2899 12.2607 16.3689 12.2495C16.6106 12.2096 16.8584 12.2299 17.0903 12.3086C17.1939 12.3469 17.2946 12.3923 17.3919 12.4446H17.5279V11.9361H17.4687C17.3497 11.8948 17.2269 11.8651 17.1021 11.8474C16.9996 11.8161 16.8948 11.7924 16.7888 11.7765V11.3448H16.3748V11.7765C16.1627 11.7993 15.9595 11.8745 15.7836 11.9953C15.7018 12.054 15.6351 12.1312 15.5888 12.2206C15.5426 12.31 15.5181 12.409 15.5175 12.5097C15.5091 12.5903 15.5173 12.6718 15.5417 12.7491C15.5661 12.8264 15.6062 12.8979 15.6594 12.9591C15.8028 13.0895 15.982 13.1739 16.1738 13.2015H16.298L16.7888 13.2784C16.8739 13.2945 16.9558 13.3244 17.0312 13.3671C17.0593 13.3851 17.0815 13.4109 17.0952 13.4413C17.1089 13.4718 17.1133 13.5056 17.108 13.5385C17.1116 13.5743 17.1052 13.6103 17.0895 13.6427C17.0739 13.675 17.0496 13.7024 17.0194 13.7218C16.9486 13.7642 16.8703 13.7923 16.7888 13.8046C16.5931 13.8386 16.3931 13.8386 16.1975 13.8046L15.9669 13.7455L15.7895 13.6745L15.6653 13.6095H15.482V14.0825H15.5352C15.6707 14.1363 15.8114 14.1759 15.955 14.2008C16.0958 14.2253 16.238 14.2411 16.3808 14.2481V14.4077H14.4295C14.1823 14.008 14.0512 13.5473 14.0511 13.0773L14.057 13.1246ZM22.3292 21.6865C22.3217 21.99 22.1978 22.2789 21.9832 22.4936C21.7685 22.7082 21.4796 22.8321 21.1761 22.8396H12.8507C12.5512 22.8324 12.2656 22.7118 12.0516 22.5022C11.8376 22.2925 11.7111 22.0095 11.6977 21.7102V16.2762C11.7054 15.9677 11.8334 15.6745 12.0544 15.4591C12.2753 15.2436 12.5717 15.1231 12.8803 15.1232H21.1998C21.5032 15.1307 21.7922 15.2546 22.0068 15.4692C22.2214 15.6838 22.3453 15.9728 22.3528 16.2762V17.3169H20.7149C20.2876 17.3423 19.886 17.53 19.5924 17.8415C19.2988 18.1531 19.1353 18.5651 19.1353 18.9932C19.1353 19.4213 19.2988 19.8333 19.5924 20.1449C19.886 20.4565 20.2876 20.6441 20.7149 20.6695H22.3528L22.3292 21.6865Z" fill="#8A93A7"/>
<path d="M20.2004 18.9961C20.2004 19.1274 20.2394 19.2556 20.3125 19.3647C20.3855 19.4737 20.4893 19.5586 20.6106 19.6085C20.732 19.6585 20.8655 19.6712 20.9941 19.6452C21.1227 19.6192 21.2407 19.5555 21.3331 19.4623C21.4254 19.3691 21.488 19.2505 21.5129 19.1217C21.5378 18.9928 21.5238 18.8595 21.4728 18.7386C21.4218 18.6177 21.336 18.5147 21.2263 18.4426C21.1166 18.3706 20.988 18.3327 20.8568 18.3339C20.6822 18.3354 20.5152 18.4059 20.3923 18.5299C20.2694 18.654 20.2004 18.8215 20.2004 18.9961ZM20.8568 18.6828C20.919 18.6816 20.9802 18.699 21.0325 18.7327C21.0848 18.7664 21.1259 18.8149 21.1505 18.8721C21.1751 18.9292 21.1822 18.9924 21.1708 19.0536C21.1593 19.1147 21.13 19.1711 21.0864 19.2156C21.0428 19.26 20.987 19.2904 20.926 19.303C20.8651 19.3156 20.8018 19.3097 20.7442 19.2862C20.6866 19.2627 20.6373 19.2225 20.6026 19.1708C20.5679 19.1192 20.5493 19.0584 20.5493 18.9961C20.5493 18.914 20.5815 18.8352 20.639 18.7766C20.6965 18.718 20.7747 18.6843 20.8568 18.6828Z" fill="#8A93A7"/>
</svg>
