<svg width="34" height="34" viewBox="0 0 34 34" fill="none" xmlns="http://www.w3.org/2000/svg">
<circle cx="17" cy="17" r="16.5" fill="#F3F3F4" stroke="#2075BC"/>
<path d="M14.6115 22.5763L14.6115 12.0336L16.4741 13.8962C16.5729 13.995 16.7069 14.0505 16.8466 14.0505C16.9863 14.0505 17.1203 13.995 17.2191 13.8962C17.3179 13.7974 17.3734 13.6634 17.3734 13.5236C17.3734 13.3839 17.3179 13.2499 17.2191 13.1511L14.4223 10.3543C14.3221 10.2582 14.1886 10.2045 14.0498 10.2045C13.9109 10.2045 13.7775 10.2582 13.6773 10.3543L10.9514 13.0861C10.8539 13.1856 10.7993 13.3193 10.7993 13.4586C10.7993 13.5979 10.8539 13.7316 10.9514 13.8311C11.0003 13.8801 11.0584 13.919 11.1223 13.9455C11.1862 13.972 11.2547 13.9856 11.3239 13.9856C11.3931 13.9856 11.4617 13.972 11.5256 13.9455C11.5895 13.919 11.6476 13.8801 11.6964 13.8311L13.559 11.9685L13.559 22.5763C13.559 22.7159 13.6145 22.8497 13.7131 22.9484C13.8118 23.0471 13.9457 23.1026 14.0853 23.1026C14.2248 23.1026 14.3587 23.0471 14.4574 22.9484C14.5561 22.8497 14.6115 22.7159 14.6115 22.5763Z" fill="#8A93A7"/>
<path d="M20.2879 10.7269L20.2879 21.3701L18.4253 19.4543C18.3764 19.4054 18.3183 19.3666 18.2544 19.3401C18.1905 19.3137 18.122 19.3 18.0528 19.3C17.9131 19.3 17.7791 19.3555 17.6803 19.4543C17.5815 19.5531 17.526 19.6871 17.526 19.8269C17.526 19.9666 17.5815 20.1006 17.6803 20.1994L20.4062 22.9311C20.5064 23.0273 20.6398 23.0809 20.7787 23.0809C20.9175 23.0809 21.051 23.0273 21.1512 22.9311L23.948 20.1284C23.997 20.0795 24.0359 20.0215 24.0624 19.9576C24.0889 19.8936 24.1025 19.8251 24.1025 19.7559C24.1025 19.6867 24.0889 19.6182 24.0624 19.5543C24.0359 19.4903 23.997 19.4323 23.948 19.3834C23.8485 19.2859 23.7148 19.2313 23.5755 19.2313C23.4362 19.2313 23.3025 19.2859 23.203 19.3834L21.3404 21.2519L21.3404 10.7269C21.3404 10.5873 21.285 10.4534 21.1863 10.3548C21.0876 10.2561 20.9537 10.2006 20.8142 10.2006C20.6746 10.2006 20.5407 10.2561 20.442 10.3548C20.3433 10.4534 20.2879 10.5873 20.2879 10.7269Z" fill="#8A93A7"/>
</svg>
