<svg width="32" height="32" viewBox="0 0 32 32" fill="none" xmlns="http://www.w3.org/2000/svg">
<path d="M23.4185 7.93038H5.73584L19.6138 5.00437L20.9888 4.71237L21.2834 4.65041C21.6229 4.57743 21.9773 4.63997 22.2713 4.82469C22.5652 5.00941 22.7754 5.30168 22.8569 5.63915L23.4185 7.93038Z" fill="#8A93A7"/>
<path d="M18.9125 3.78949L3.31348 7.0787L15.2937 0.177952C15.6007 0.00134445 15.9653 -0.0461341 16.3073 0.0459496C16.6493 0.138033 16.9408 0.362145 17.1176 0.669027L18.9125 3.78949Z" fill="#8A93A7"/>
<path d="M22.6257 24.9637C21.9173 24.963 21.2382 24.6813 20.7373 24.1805C20.2365 23.6796 19.9548 23.0005 19.9541 22.2921V18.2838C19.9548 17.5755 20.2365 16.8963 20.7373 16.3955C21.2382 15.8946 21.9173 15.6129 22.6257 15.6122H28.7216V10.6026C28.7212 10.2485 28.5804 9.90891 28.3301 9.65844C28.0797 9.40796 27.7402 9.267 27.3861 9.26648H1.33546C1.07805 9.2663 0.826132 9.34096 0.610385 9.48137C0.494614 9.55657 0.391027 9.64905 0.303216 9.75558C0.106641 9.99402 -0.000591505 10.2936 2.45423e-06 10.6026V29.9733C0.000351472 30.3276 0.141232 30.6672 0.391726 30.9177C0.642221 31.1682 0.981865 31.3091 1.33612 31.3094H27.3861C27.7402 31.3089 28.0797 31.168 28.3301 30.9175C28.5804 30.667 28.7212 30.3275 28.7216 29.9733V24.9637H22.6257Z" fill="#8A93A7"/>
<path d="M29.9733 16.9483H22.6257C22.2714 16.9483 21.9317 17.089 21.6811 17.3394C21.4306 17.5898 21.2897 17.9295 21.2896 18.2838V22.2921C21.2893 22.4677 21.3237 22.6417 21.3907 22.804C21.4577 22.9664 21.5561 23.1139 21.6802 23.2382C21.8043 23.3624 21.9517 23.461 22.1139 23.5283C22.2761 23.5956 22.45 23.6302 22.6257 23.6302H29.9733C30.3276 23.6302 30.6673 23.4895 30.9179 23.2391C31.1684 22.9887 31.3093 22.649 31.3094 22.2947V18.2838C31.3093 17.9295 31.1684 17.5898 30.9179 17.3394C30.6673 17.089 30.3276 16.9483 29.9733 16.9483ZM24.3434 21.7911C24.0462 21.791 23.7557 21.7028 23.5087 21.5375C23.2616 21.3723 23.0691 21.1376 22.9554 20.8629C22.8418 20.5883 22.8121 20.2862 22.8702 19.9947C22.9282 19.7032 23.0714 19.4354 23.2816 19.2253C23.4918 19.0152 23.7596 18.8721 24.0511 18.8142C24.3427 18.7563 24.6448 18.7861 24.9194 18.8998C25.194 19.0136 25.4286 19.2062 25.5937 19.4534C25.7589 19.7005 25.847 19.991 25.847 20.2883C25.847 20.4857 25.8081 20.6812 25.7325 20.8635C25.657 21.0459 25.5462 21.2116 25.4066 21.3512C25.2669 21.4908 25.1012 21.6014 24.9188 21.6769C24.7364 21.7524 24.5409 21.7912 24.3434 21.7911Z" fill="#8A93A7"/>
</svg>
